0
SECTION
2
HEADER
9
$HANDSEED
5
16A
9
$INSUNITS
70
6
9
$ACADVER
1
AC1021
0
ENDSEC
0
SECTION
2
CLASSES
0
ENDSEC
0
SECTION
2
TABLES
0
TABLE
2
LTYPE
5
168
330
0
100
AcDbSymbolTable
70
5
0
LTYPE
5
2
330
168
100
AcDbSymbolTableRecord
100
AcDbLinetypeTableRecord
2
CONTINUOUS
3
______
70
0
72
65
73
0
40
0
0
LTYPE
5
3
330
168
100
AcDbSymbolTableRecord
100
AcDbLinetypeTableRecord
2
DASHED
3
_ _ _ 
70
0
72
65
73
2
40
10
49
5
74
0
49
-5
74
0
0
LTYPE
5
4
330
168
100
AcDbSymbolTableRecord
100
AcDbLinetypeTableRecord
2
DOTTED
3
. . . 
70
0
72
65
73
2
40
5
49
0
74
0
49
-5
74
0
0
LTYPE
5
6
330
168
100
AcDbSymbolTableRecord
100
AcDbLinetypeTableRecord
2
ByBlock
3

70
0
72
65
73
0
40
0
0
LTYPE
5
7
330
168
100
AcDbSymbolTableRecord
100
AcDbLinetypeTableRecord
2
ByLayer
3

70
0
72
65
73
0
40
0
0
ENDTAB
0
TABLE
2
LAYER
5
169
330
0
100
AcDbSymbolTable
70
4
0
LAYER
5
5
330
169
100
AcDbSymbolTableRecord
100
AcDbLayerTableRecord
2
0
62
7
70
0
6
CONTINUOUS
390
1
0
LAYER
5
16
330
169
100
AcDbSymbolTableRecord
100
AcDbLayerTableRecord
2
roofs
62
3
70
0
6
CONTINUOUS
390
1
0
LAYER
5
17
330
169
100
AcDbSymbolTableRecord
100
AcDbLayerTableRecord
2
panels
62
5
70
0
6
CONTINUOUS
390
1
0
LAYER
5
18
330
169
100
AcDbSymbolTableRecord
100
AcDbLayerTableRecord
2
trees
62
3
70
0
6
CONTINUOUS
390
1
0
ENDTAB
0
TABLE
2
VPORT
5
8
330
0
100
AcDbSymbolTable
70
1
0
VPORT
5
E
330
8
100
AcDbSymbolTableRecord
100
AcDbViewportTableRecord
2
*ACTIVE
40
1000
70
0
0
ENDTAB
0
TABLE
2
STYLE
5
9
330
0
100
AcDbSymbolTable
70
1
0
STYLE
5
F
330
9
100
AcDbSymbolTableRecord
100
AcDbTextStyleTableRecord
2
standard
70
0
40
0
41
1
50
0
71
0
42
1
3
txt
4

0
ENDTAB
0
TABLE
2
VIEW
5
A
330
0
100
AcDbSymbolTable
70
0
0
ENDTAB
0
TABLE
2
UCS
5
B
330
0
100
AcDbSymbolTable
70
0
0
ENDTAB
0
TABLE
2
APPID
5
C
330
0
100
AcDbSymbolTable
70
1
0
APPID
5
10
330
C
100
AcDbSymbolTableRecord
100
AcDbRegAppTableRecord
2
ACAD
70
0
0
ENDTAB
0
TABLE
2
DIMSTYLE
5
D
330
0
100
AcDbSymbolTable
100
AcDbDimStyleTable
70
0
71
1
0
ENDTAB
0
TABLE
2
BLOCK_RECORD
5
165
330
0
100
AcDbSymbolTable
70
2
0
BLOCK_RECORD
5
166
330
165
100
AcDbSymbolTableRecord
100
AcDbBlockTableRecord
2
*Model_Space
70
0
280
0
281
1
0
BLOCK_RECORD
5
167
330
165
100
AcDbSymbolTableRecord
100
AcDbBlockTableRecord
2
*Paper_Space
70
0
280
0
281
1
0
ENDTAB
0
ENDSEC
0
SECTION
2
BLOCKS
0
BLOCK
5
11
330
0
100
AcDbEntity
100
AcDbBlockBegin
2
*Model_Space
70
0
10
0
20
0
30
0
3
*Model_Space
1

0
ENDBLK
5
12
330
0
100
AcDbEntity
100
AcDbBlockEnd
0
BLOCK
5
13
330
0
100
AcDbEntity
100
AcDbBlockBegin
2
*Paper_Space
70
0
10
0
20
0
30
0
3
*Paper_Space
1

0
ENDBLK
5
14
330
0
100
AcDbEntity
100
AcDbBlockEnd
0
ENDSEC
0
SECTION
2
ENTITIES
0
POLYLINE
5
19
330
11
100
AcDbEntity
100
AcDb3dPolyline
8
0
66
1
70
0
10
0
20
0
30
0
0
VERTEX
5
1A
330
19
100
AcDbEntity
100
AcDbVertex
100
AcDb3dPolylineVertex
8
0
10
48.5
20
53.8
30
95.58476647214255
70
32
0
VERTEX
5
1B
330
19
100
AcDbEntity
100
AcDbVertex
100
AcDb3dPolylineVertex
8
0
10
48.4
20
53.9
30
95.5463942274096
70
32
0
VERTEX
5
1C
330
19
100
AcDbEntity
100
AcDbVertex
100
AcDb3dPolylineVertex
8
0
10
48.6
20
54.1
30
95.49366942904638
70
32
0
VERTEX
5
1D
330
19
100
AcDbEntity
100
AcDbVertex
100
AcDb3dPolylineVertex
8
0
10
48.7
20
54
30
95.53204167377932
70
32
0
VERTEX
5
1E
330
19
100
AcDbEntity
100
AcDbVertex
100
AcDb3dPolylineVertex
8
0
10
48.7
20
53.9
30
95.56440899573657
70
32
0
VERTEX
5
1F
330
19
100
AcDbEntity
100
AcDbVertex
100
AcDb3dPolylineVertex
8
0
10
48.6
20
53.8
30
95.5907713949182
70
32
0
VERTEX
5
20
330
19
100
AcDbEntity
100
AcDbVertex
100
AcDb3dPolylineVertex
8
0
10
48.5
20
53.8
30
95.58476647214255
70
32
0
VERTEX
5
21
330
19
100
AcDbEntity
100
AcDbVertex
100
AcDb3dPolylineVertex
8
0
10
48.5
20
53.8
30
95.73458501328763
70
32
0
VERTEX
5
22
330
19
100
AcDbEntity
100
AcDbVertex
100
AcDb3dPolylineVertex
8
0
10
48.4
20
53.9
30
95.69621276855469
70
32
0
VERTEX
5
23
330
19
100
AcDbEntity
100
AcDbVertex
100
AcDb3dPolylineVertex
8
0
10
48.6
20
54.1
30
95.64348797019146
70
32
0
VERTEX
5
24
330
19
100
AcDbEntity
100
AcDbVertex
100
AcDb3dPolylineVertex
8
0
10
48.7
20
54
30
95.6818602149244
70
32
0
VERTEX
5
25
330
19
100
AcDbEntity
100
AcDbVertex
100
AcDb3dPolylineVertex
8
0
10
48.7
20
53.9
30
95.71422753688165
70
32
0
VERTEX
5
26
330
19
100
AcDbEntity
100
AcDbVertex
100
AcDb3dPolylineVertex
8
0
10
48.6
20
53.8
30
95.74058993606329
70
32
0
VERTEX
5
27
330
19
100
AcDbEntity
100
AcDbVertex
100
AcDb3dPolylineVertex
8
0
10
48.5
20
53.8
30
95.73458501328763
70
32
0
VERTEX
5
28
330
19
100
AcDbEntity
100
AcDbVertex
100
AcDb3dPolylineVertex
8
0
10
48.5
20
53.8
30
95.58476647214255
70
32
0
VERTEX
5
29
330
19
100
AcDbEntity
100
AcDbVertex
100
AcDb3dPolylineVertex
8
0
10
48.5
20
53.8
30
95.73458501328763
70
32
0
VERTEX
5
2A
330
19
100
AcDbEntity
100
AcDbVertex
100
AcDb3dPolylineVertex
8
0
10
48.4
20
53.9
30
95.5463942274096
70
32
0
VERTEX
5
2B
330
19
100
AcDbEntity
100
AcDbVertex
100
AcDb3dPolylineVertex
8
0
10
48.4
20
53.9
30
95.69621276855469
70
32
0
VERTEX
5
2C
330
19
100
AcDbEntity
100
AcDbVertex
100
AcDb3dPolylineVertex
8
0
10
48.6
20
54.1
30
95.49366942904638
70
32
0
VERTEX
5
2D
330
19
100
AcDbEntity
100
AcDbVertex
100
AcDb3dPolylineVertex
8
0
10
48.6
20
54.1
30
95.64348797019146
70
32
0
VERTEX
5
2E
330
19
100
AcDbEntity
100
AcDbVertex
100
AcDb3dPolylineVertex
8
0
10
48.7
20
54
30
95.53204167377932
70
32
0
VERTEX
5
2F
330
19
100
AcDbEntity
100
AcDbVertex
100
AcDb3dPolylineVertex
8
0
10
48.7
20
54
30
95.6818602149244
70
32
0
VERTEX
5
30
330
19
100
AcDbEntity
100
AcDbVertex
100
AcDb3dPolylineVertex
8
0
10
48.7
20
53.9
30
95.56440899573657
70
32
0
VERTEX
5
31
330
19
100
AcDbEntity
100
AcDbVertex
100
AcDb3dPolylineVertex
8
0
10
48.7
20
53.9
30
95.71422753688165
70
32
0
VERTEX
5
32
330
19
100
AcDbEntity
100
AcDbVertex
100
AcDb3dPolylineVertex
8
0
10
48.6
20
53.8
30
95.5907713949182
70
32
0
VERTEX
5
33
330
19
100
AcDbEntity
100
AcDbVertex
100
AcDb3dPolylineVertex
8
0
10
48.6
20
53.8
30
95.74058993606329
70
32
0
SEQEND
5
34
100
AcDbEntity
8
0
0
POLYLINE
5
35
330
11
100
AcDbEntity
100
AcDb3dPolyline
8
0
66
1
70
0
10
0
20
0
30
0
0
VERTEX
5
36
330
35
100
AcDbEntity
100
AcDbVertex
100
AcDb3dPolylineVertex
8
0
10
46.9
20
48.3
30
95.84408480626492
70
32
0
VERTEX
5
37
330
35
100
AcDbEntity
100
AcDbVertex
100
AcDb3dPolylineVertex
8
0
10
46.8
20
48.4
30
95.87554668528948
70
32
0
VERTEX
5
38
330
35
100
AcDbEntity
100
AcDbVertex
100
AcDb3dPolylineVertex
8
0
10
47
20
48.6
30
95.84273698298949
70
32
0
VERTEX
5
39
330
35
100
AcDbEntity
100
AcDbVertex
100
AcDb3dPolylineVertex
8
0
10
47.1
20
48.5
30
95.81127510396493
70
32
0
VERTEX
5
3A
330
35
100
AcDbEntity
100
AcDbVertex
100
AcDb3dPolylineVertex
8
0
10
47.1
20
48.4
30
95.80374659002764
70
32
0
VERTEX
5
3B
330
35
100
AcDbEntity
100
AcDbVertex
100
AcDb3dPolylineVertex
8
0
10
47
20
48.3
30
95.82015144117763
70
32
0
VERTEX
5
3C
330
35
100
AcDbEntity
100
AcDbVertex
100
AcDb3dPolylineVertex
8
0
10
46.9
20
48.3
30
95.84408480626492
70
32
0
VERTEX
5
3D
330
35
100
AcDbEntity
100
AcDbVertex
100
AcDb3dPolylineVertex
8
0
10
46.9
20
48.3
30
96.03161018889352
70
32
0
VERTEX
5
3E
330
35
100
AcDbEntity
100
AcDbVertex
100
AcDb3dPolylineVertex
8
0
10
46.8
20
48.4
30
96.06307206791809
70
32
0
VERTEX
5
3F
330
35
100
AcDbEntity
100
AcDbVertex
100
AcDb3dPolylineVertex
8
0
10
47
20
48.6
30
96.0302623656181
70
32
0
VERTEX
5
40
330
35
100
AcDbEntity
100
AcDbVertex
100
AcDb3dPolylineVertex
8
0
10
47.1
20
48.5
30
95.99880048659354
70
32
0
VERTEX
5
41
330
35
100
AcDbEntity
100
AcDbVertex
100
AcDb3dPolylineVertex
8
0
10
47.1
20
48.4
30
95.99127197265625
70
32
0
VERTEX
5
42
330
35
100
AcDbEntity
100
AcDbVertex
100
AcDb3dPolylineVertex
8
0
10
47
20
48.3
30
96.00767682380624
70
32
0
VERTEX
5
43
330
35
100
AcDbEntity
100
AcDbVertex
100
AcDb3dPolylineVertex
8
0
10
46.9
20
48.3
30
96.03161018889352
70
32
0
VERTEX
5
44
330
35
100
AcDbEntity
100
AcDbVertex
100
AcDb3dPolylineVertex
8
0
10
46.9
20
48.3
30
95.84408480626492
70
32
0
VERTEX
5
45
330
35
100
AcDbEntity
100
AcDbVertex
100
AcDb3dPolylineVertex
8
0
10
46.9
20
48.3
30
96.03161018889352
70
32
0
VERTEX
5
46
330
35
100
AcDbEntity
100
AcDbVertex
100
AcDb3dPolylineVertex
8
0
10
46.8
20
48.4
30
95.87554668528948
70
32
0
VERTEX
5
47
330
35
100
AcDbEntity
100
AcDbVertex
100
AcDb3dPolylineVertex
8
0
10
46.8
20
48.4
30
96.06307206791809
70
32
0
VERTEX
5
48
330
35
100
AcDbEntity
100
AcDbVertex
100
AcDb3dPolylineVertex
8
0
10
47
20
48.6
30
95.84273698298949
70
32
0
VERTEX
5
49
330
35
100
AcDbEntity
100
AcDbVertex
100
AcDb3dPolylineVertex
8
0
10
47
20
48.6
30
96.0302623656181
70
32
0
VERTEX
5
4A
330
35
100
AcDbEntity
100
AcDbVertex
100
AcDb3dPolylineVertex
8
0
10
47.1
20
48.5
30
95.81127510396493
70
32
0
VERTEX
5
4B
330
35
100
AcDbEntity
100
AcDbVertex
100
AcDb3dPolylineVertex
8
0
10
47.1
20
48.5
30
95.99880048659354
70
32
0
VERTEX
5
4C
330
35
100
AcDbEntity
100
AcDbVertex
100
AcDb3dPolylineVertex
8
0
10
47.1
20
48.4
30
95.80374659002764
70
32
0
VERTEX
5
4D
330
35
100
AcDbEntity
100
AcDbVertex
100
AcDb3dPolylineVertex
8
0
10
47.1
20
48.4
30
95.99127197265625
70
32
0
VERTEX
5
4E
330
35
100
AcDbEntity
100
AcDbVertex
100
AcDb3dPolylineVertex
8
0
10
47
20
48.3
30
95.82015144117763
70
32
0
VERTEX
5
4F
330
35
100
AcDbEntity
100
AcDbVertex
100
AcDb3dPolylineVertex
8
0
10
47
20
48.3
30
96.00767682380624
70
32
0
SEQEND
5
50
100
AcDbEntity
8
0
0
POLYLINE
5
51
330
11
100
AcDbEntity
100
AcDb3dPolyline
8
0
66
1
70
0
10
0
20
0
30
0
0
VERTEX
5
52
330
51
100
AcDbEntity
100
AcDbVertex
100
AcDb3dPolylineVertex
8
0
10
47.3
20
50
30
95.8763360828497
70
32
0
VERTEX
5
53
330
51
100
AcDbEntity
100
AcDbVertex
100
AcDb3dPolylineVertex
8
0
10
47.2
20
50.1
30
95.90779796187425
70
32
0
VERTEX
5
54
330
51
100
AcDbEntity
100
AcDbVertex
100
AcDb3dPolylineVertex
8
0
10
47.2
20
50.2
30
95.91532647581155
70
32
0
VERTEX
5
55
330
51
100
AcDbEntity
100
AcDbVertex
100
AcDb3dPolylineVertex
8
0
10
47.4
20
50.4
30
95.88251677351157
70
32
0
VERTEX
5
56
330
51
100
AcDbEntity
100
AcDbVertex
100
AcDb3dPolylineVertex
8
0
10
47.5
20
50.4
30
95.8585834084243
70
32
0
VERTEX
5
57
330
51
100
AcDbEntity
100
AcDbVertex
100
AcDb3dPolylineVertex
8
0
10
47.6
20
50.3
30
95.82712152939972
70
32
0
VERTEX
5
58
330
51
100
AcDbEntity
100
AcDbVertex
100
AcDb3dPolylineVertex
8
0
10
47.6
20
50.2
30
95.81959301546244
70
32
0
VERTEX
5
59
330
51
100
AcDbEntity
100
AcDbVertex
100
AcDb3dPolylineVertex
8
0
10
47.4
20
50
30
95.85240271776242
70
32
0
VERTEX
5
5A
330
51
100
AcDbEntity
100
AcDbVertex
100
AcDb3dPolylineVertex
8
0
10
47.3
20
50
30
95.8763360828497
70
32
0
VERTEX
5
5B
330
51
100
AcDbEntity
100
AcDbVertex
100
AcDb3dPolylineVertex
8
0
10
47.3
20
50
30
96.11750530945645
70
32
0
VERTEX
5
5C
330
51
100
AcDbEntity
100
AcDbVertex
100
AcDb3dPolylineVertex
8
0
10
47.2
20
50.1
30
96.148967188481
70
32
0
VERTEX
5
5D
330
51
100
AcDbEntity
100
AcDbVertex
100
AcDb3dPolylineVertex
8
0
10
47.2
20
50.2
30
96.1564957024183
70
32
0
VERTEX
5
5E
330
51
100
AcDbEntity
100
AcDbVertex
100
AcDb3dPolylineVertex
8
0
10
47.4
20
50.4
30
96.12368600011831
70
32
0
VERTEX
5
5F
330
51
100
AcDbEntity
100
AcDbVertex
100
AcDb3dPolylineVertex
8
0
10
47.5
20
50.4
30
96.09975263503104
70
32
0
VERTEX
5
60
330
51
100
AcDbEntity
100
AcDbVertex
100
AcDb3dPolylineVertex
8
0
10
47.6
20
50.3
30
96.06829075600646
70
32
0
VERTEX
5
61
330
51
100
AcDbEntity
100
AcDbVertex
100
AcDb3dPolylineVertex
8
0
10
47.6
20
50.2
30
96.06076224206919
70
32
0
VERTEX
5
62
330
51
100
AcDbEntity
100
AcDbVertex
100
AcDb3dPolylineVertex
8
0
10
47.4
20
50
30
96.09357194436916
70
32
0
VERTEX
5
63
330
51
100
AcDbEntity
100
AcDbVertex
100
AcDb3dPolylineVertex
8
0
10
47.3
20
50
30
96.11750530945645
70
32
0
VERTEX
5
64
330
51
100
AcDbEntity
100
AcDbVertex
100
AcDb3dPolylineVertex
8
0
10
47.3
20
50
30
95.8763360828497
70
32
0
VERTEX
5
65
330
51
100
AcDbEntity
100
AcDbVertex
100
AcDb3dPolylineVertex
8
0
10
47.3
20
50
30
96.11750530945645
70
32
0
VERTEX
5
66
330
51
100
AcDbEntity
100
AcDbVertex
100
AcDb3dPolylineVertex
8
0
10
47.2
20
50.1
30
95.90779796187425
70
32
0
VERTEX
5
67
330
51
100
AcDbEntity
100
AcDbVertex
100
AcDb3dPolylineVertex
8
0
10
47.2
20
50.1
30
96.148967188481
70
32
0
VERTEX
5
68
330
51
100
AcDbEntity
100
AcDbVertex
100
AcDb3dPolylineVertex
8
0
10
47.2
20
50.2
30
95.91532647581155
70
32
0
VERTEX
5
69
330
51
100
AcDbEntity
100
AcDbVertex
100
AcDb3dPolylineVertex
8
0
10
47.2
20
50.2
30
96.1564957024183
70
32
0
VERTEX
5
6A
330
51
100
AcDbEntity
100
AcDbVertex
100
AcDb3dPolylineVertex
8
0
10
47.4
20
50.4
30
95.88251677351157
70
32
0
VERTEX
5
6B
330
51
100
AcDbEntity
100
AcDbVertex
100
AcDb3dPolylineVertex
8
0
10
47.4
20
50.4
30
96.12368600011831
70
32
0
VERTEX
5
6C
330
51
100
AcDbEntity
100
AcDbVertex
100
AcDb3dPolylineVertex
8
0
10
47.5
20
50.4
30
95.8585834084243
70
32
0
VERTEX
5
6D
330
51
100
AcDbEntity
100
AcDbVertex
100
AcDb3dPolylineVertex
8
0
10
47.5
20
50.4
30
96.09975263503104
70
32
0
VERTEX
5
6E
330
51
100
AcDbEntity
100
AcDbVertex
100
AcDb3dPolylineVertex
8
0
10
47.6
20
50.3
30
95.82712152939972
70
32
0
VERTEX
5
6F
330
51
100
AcDbEntity
100
AcDbVertex
100
AcDb3dPolylineVertex
8
0
10
47.6
20
50.3
30
96.06829075600646
70
32
0
VERTEX
5
70
330
51
100
AcDbEntity
100
AcDbVertex
100
AcDb3dPolylineVertex
8
0
10
47.6
20
50.2
30
95.81959301546244
70
32
0
VERTEX
5
71
330
51
100
AcDbEntity
100
AcDbVertex
100
AcDb3dPolylineVertex
8
0
10
47.6
20
50.2
30
96.06076224206919
70
32
0
VERTEX
5
72
330
51
100
AcDbEntity
100
AcDbVertex
100
AcDb3dPolylineVertex
8
0
10
47.4
20
50
30
95.85240271776242
70
32
0
VERTEX
5
73
330
51
100
AcDbEntity
100
AcDbVertex
100
AcDb3dPolylineVertex
8
0
10
47.4
20
50
30
96.09357194436916
70
32
0
SEQEND
5
74
100
AcDbEntity
8
0
0
POLYLINE
5
75
330
11
100
AcDbEntity
100
AcDb3dPolyline
8
0
66
1
70
0
10
0
20
0
30
0
0
VERTEX
5
76
330
75
100
AcDbEntity
100
AcDbVertex
100
AcDb3dPolylineVertex
8
0
10
42.9
20
44.5
30
94.04818448020636
70
32
0
VERTEX
5
77
330
75
100
AcDbEntity
100
AcDbVertex
100
AcDb3dPolylineVertex
8
0
10
42.8
20
44.6
30
93.97062997827052
70
32
0
VERTEX
5
78
330
75
100
AcDbEntity
100
AcDbVertex
100
AcDb3dPolylineVertex
8
0
10
42.9
20
44.7
30
94.04255486827702
70
32
0
VERTEX
5
79
330
75
100
AcDbEntity
100
AcDbVertex
100
AcDb3dPolylineVertex
8
0
10
43
20
44.6
30
94.12010937021286
70
32
0
VERTEX
5
7A
330
75
100
AcDbEntity
100
AcDbVertex
100
AcDb3dPolylineVertex
8
0
10
42.9
20
44.5
30
94.04818448020636
70
32
0
VERTEX
5
7B
330
75
100
AcDbEntity
100
AcDbVertex
100
AcDb3dPolylineVertex
8
0
10
42.9
20
44.5
30
95.88739013671875
70
32
0
VERTEX
5
7C
330
75
100
AcDbEntity
100
AcDbVertex
100
AcDb3dPolylineVertex
8
0
10
42.8
20
44.6
30
95.80983563478291
70
32
0
VERTEX
5
7D
330
75
100
AcDbEntity
100
AcDbVertex
100
AcDb3dPolylineVertex
8
0
10
42.9
20
44.7
30
95.88176052478941
70
32
0
VERTEX
5
7E
330
75
100
AcDbEntity
100
AcDbVertex
100
AcDb3dPolylineVertex
8
0
10
43
20
44.6
30
95.95931502672525
70
32
0
VERTEX
5
7F
330
75
100
AcDbEntity
100
AcDbVertex
100
AcDb3dPolylineVertex
8
0
10
42.9
20
44.5
30
95.88739013671875
70
32
0
VERTEX
5
80
330
75
100
AcDbEntity
100
AcDbVertex
100
AcDb3dPolylineVertex
8
0
10
42.9
20
44.5
30
94.04818448020636
70
32
0
VERTEX
5
81
330
75
100
AcDbEntity
100
AcDbVertex
100
AcDb3dPolylineVertex
8
0
10
42.9
20
44.5
30
95.88739013671875
70
32
0
VERTEX
5
82
330
75
100
AcDbEntity
100
AcDbVertex
100
AcDb3dPolylineVertex
8
0
10
42.8
20
44.6
30
93.97062997827052
70
32
0
VERTEX
5
83
330
75
100
AcDbEntity
100
AcDbVertex
100
AcDb3dPolylineVertex
8
0
10
42.8
20
44.6
30
95.80983563478291
70
32
0
VERTEX
5
84
330
75
100
AcDbEntity
100
AcDbVertex
100
AcDb3dPolylineVertex
8
0
10
42.9
20
44.7
30
94.04255486827702
70
32
0
VERTEX
5
85
330
75
100
AcDbEntity
100
AcDbVertex
100
AcDb3dPolylineVertex
8
0
10
42.9
20
44.7
30
95.88176052478941
70
32
0
VERTEX
5
86
330
75
100
AcDbEntity
100
AcDbVertex
100
AcDb3dPolylineVertex
8
0
10
43
20
44.6
30
94.12010937021286
70
32
0
VERTEX
5
87
330
75
100
AcDbEntity
100
AcDbVertex
100
AcDb3dPolylineVertex
8
0
10
43
20
44.6
30
95.95931502672525
70
32
0
SEQEND
5
88
100
AcDbEntity
8
0
0
POLYLINE
5
89
330
11
100
AcDbEntity
100
AcDb3dPolyline
8
0
66
1
70
0
10
0
20
0
30
0
0
VERTEX
5
8A
330
89
100
AcDbEntity
100
AcDbVertex
100
AcDb3dPolylineVertex
8
0
10
43
20
45.5
30
94.09477611653087
70
32
0
VERTEX
5
8B
330
89
100
AcDbEntity
100
AcDbVertex
100
AcDb3dPolylineVertex
8
0
10
42.9
20
45.6
30
94.01722161459503
70
32
0
VERTEX
5
8C
330
89
100
AcDbEntity
100
AcDbVertex
100
AcDb3dPolylineVertex
8
0
10
42.9
20
45.7
30
94.01440680863037
70
32
0
VERTEX
5
8D
330
89
100
AcDbEntity
100
AcDbVertex
100
AcDb3dPolylineVertex
8
0
10
42.8
20
45.8
30
93.93685230669456
70
32
0
VERTEX
5
8E
330
89
100
AcDbEntity
100
AcDbVertex
100
AcDb3dPolylineVertex
8
0
10
42.9
20
45.9
30
94.00877719670105
70
32
0
VERTEX
5
8F
330
89
100
AcDbEntity
100
AcDbVertex
100
AcDb3dPolylineVertex
8
0
10
43.1
20
45.9
30
94.15825658864337
70
32
0
VERTEX
5
90
330
89
100
AcDbEntity
100
AcDbVertex
100
AcDb3dPolylineVertex
8
0
10
43.2
20
45.8
30
94.23581109057918
70
32
0
VERTEX
5
91
330
89
100
AcDbEntity
100
AcDbVertex
100
AcDb3dPolylineVertex
8
0
10
43.2
20
45.7
30
94.23862589654384
70
32
0
VERTEX
5
92
330
89
100
AcDbEntity
100
AcDbVertex
100
AcDb3dPolylineVertex
8
0
10
43
20
45.5
30
94.09477611653087
70
32
0
VERTEX
5
93
330
89
100
AcDbEntity
100
AcDbVertex
100
AcDb3dPolylineVertex
8
0
10
43
20
45.5
30
95.72407066042224
70
32
0
VERTEX
5
94
330
89
100
AcDbEntity
100
AcDbVertex
100
AcDb3dPolylineVertex
8
0
10
42.9
20
45.6
30
95.6465161584864
70
32
0
VERTEX
5
95
330
89
100
AcDbEntity
100
AcDbVertex
100
AcDb3dPolylineVertex
8
0
10
42.9
20
45.7
30
95.64370135252175
70
32
0
VERTEX
5
96
330
89
100
AcDbEntity
100
AcDbVertex
100
AcDb3dPolylineVertex
8
0
10
42.8
20
45.8
30
95.56614685058594
70
32
0
VERTEX
5
97
330
89
100
AcDbEntity
100
AcDbVertex
100
AcDb3dPolylineVertex
8
0
10
42.9
20
45.9
30
95.63807174059242
70
32
0
VERTEX
5
98
330
89
100
AcDbEntity
100
AcDbVertex
100
AcDb3dPolylineVertex
8
0
10
43.1
20
45.9
30
95.78755113253474
70
32
0
VERTEX
5
99
330
89
100
AcDbEntity
100
AcDbVertex
100
AcDb3dPolylineVertex
8
0
10
43.2
20
45.8
30
95.86510563447055
70
32
0
VERTEX
5
9A
330
89
100
AcDbEntity
100
AcDbVertex
100
AcDb3dPolylineVertex
8
0
10
43.2
20
45.7
30
95.86792044043521
70
32
0
VERTEX
5
9B
330
89
100
AcDbEntity
100
AcDbVertex
100
AcDb3dPolylineVertex
8
0
10
43
20
45.5
30
95.72407066042224
70
32
0
VERTEX
5
9C
330
89
100
AcDbEntity
100
AcDbVertex
100
AcDb3dPolylineVertex
8
0
10
43
20
45.5
30
94.09477611653087
70
32
0
VERTEX
5
9D
330
89
100
AcDbEntity
100
AcDbVertex
100
AcDb3dPolylineVertex
8
0
10
43
20
45.5
30
95.72407066042224
70
32
0
VERTEX
5
9E
330
89
100
AcDbEntity
100
AcDbVertex
100
AcDb3dPolylineVertex
8
0
10
42.9
20
45.6
30
94.01722161459503
70
32
0
VERTEX
5
9F
330
89
100
AcDbEntity
100
AcDbVertex
100
AcDb3dPolylineVertex
8
0
10
42.9
20
45.6
30
95.6465161584864
70
32
0
VERTEX
5
A0
330
89
100
AcDbEntity
100
AcDbVertex
100
AcDb3dPolylineVertex
8
0
10
42.9
20
45.7
30
94.01440680863037
70
32
0
VERTEX
5
A1
330
89
100
AcDbEntity
100
AcDbVertex
100
AcDb3dPolylineVertex
8
0
10
42.9
20
45.7
30
95.64370135252175
70
32
0
VERTEX
5
A2
330
89
100
AcDbEntity
100
AcDbVertex
100
AcDb3dPolylineVertex
8
0
10
42.8
20
45.8
30
93.93685230669456
70
32
0
VERTEX
5
A3
330
89
100
AcDbEntity
100
AcDbVertex
100
AcDb3dPolylineVertex
8
0
10
42.8
20
45.8
30
95.56614685058594
70
32
0
VERTEX
5
A4
330
89
100
AcDbEntity
100
AcDbVertex
100
AcDb3dPolylineVertex
8
0
10
42.9
20
45.9
30
94.00877719670105
70
32
0
VERTEX
5
A5
330
89
100
AcDbEntity
100
AcDbVertex
100
AcDb3dPolylineVertex
8
0
10
42.9
20
45.9
30
95.63807174059242
70
32
0
VERTEX
5
A6
330
89
100
AcDbEntity
100
AcDbVertex
100
AcDb3dPolylineVertex
8
0
10
43.1
20
45.9
30
94.15825658864337
70
32
0
VERTEX
5
A7
330
89
100
AcDbEntity
100
AcDbVertex
100
AcDb3dPolylineVertex
8
0
10
43.1
20
45.9
30
95.78755113253474
70
32
0
VERTEX
5
A8
330
89
100
AcDbEntity
100
AcDbVertex
100
AcDb3dPolylineVertex
8
0
10
43.2
20
45.8
30
94.23581109057918
70
32
0
VERTEX
5
A9
330
89
100
AcDbEntity
100
AcDbVertex
100
AcDb3dPolylineVertex
8
0
10
43.2
20
45.8
30
95.86510563447055
70
32
0
VERTEX
5
AA
330
89
100
AcDbEntity
100
AcDbVertex
100
AcDb3dPolylineVertex
8
0
10
43.2
20
45.7
30
94.23862589654384
70
32
0
VERTEX
5
AB
330
89
100
AcDbEntity
100
AcDbVertex
100
AcDb3dPolylineVertex
8
0
10
43.2
20
45.7
30
95.86792044043521
70
32
0
SEQEND
5
AC
100
AcDbEntity
8
0
0
POLYLINE
5
AD
330
11
100
AcDbEntity
100
AcDb3dPolyline
8
0
66
1
70
0
10
0
20
0
30
0
0
VERTEX
5
AE
330
AD
100
AcDbEntity
100
AcDbVertex
100
AcDb3dPolylineVertex
8
0
10
43.3
20
48.8
30
94.22610660761038
70
32
0
VERTEX
5
AF
330
AD
100
AcDbEntity
100
AcDbVertex
100
AcDb3dPolylineVertex
8
0
10
43.2
20
48.9
30
94.14855210567455
70
32
0
VERTEX
5
B0
330
AD
100
AcDbEntity
100
AcDbVertex
100
AcDb3dPolylineVertex
8
0
10
43.2
20
49
30
94.1457372997099
70
32
0
VERTEX
5
B1
330
AD
100
AcDbEntity
100
AcDbVertex
100
AcDb3dPolylineVertex
8
0
10
43.3
20
49.1
30
94.21766218971639
70
32
0
VERTEX
5
B2
330
AD
100
AcDbEntity
100
AcDbVertex
100
AcDb3dPolylineVertex
8
0
10
43.5
20
49.1
30
94.3671415816587
70
32
0
VERTEX
5
B3
330
AD
100
AcDbEntity
100
AcDbVertex
100
AcDb3dPolylineVertex
8
0
10
43.6
20
49
30
94.44469608359451
70
32
0
VERTEX
5
B4
330
AD
100
AcDbEntity
100
AcDbVertex
100
AcDb3dPolylineVertex
8
0
10
43.6
20
48.9
30
94.44751088955918
70
32
0
VERTEX
5
B5
330
AD
100
AcDbEntity
100
AcDbVertex
100
AcDb3dPolylineVertex
8
0
10
43.5
20
48.8
30
94.37558599955268
70
32
0
VERTEX
5
B6
330
AD
100
AcDbEntity
100
AcDbVertex
100
AcDb3dPolylineVertex
8
0
10
43.3
20
48.8
30
94.22610660761038
70
32
0
VERTEX
5
B7
330
AD
100
AcDbEntity
100
AcDbVertex
100
AcDb3dPolylineVertex
8
0
10
43.3
20
48.8
30
95.17325718631845
70
32
0
VERTEX
5
B8
330
AD
100
AcDbEntity
100
AcDbVertex
100
AcDb3dPolylineVertex
8
0
10
43.2
20
48.9
30
95.09570268438263
70
32
0
VERTEX
5
B9
330
AD
100
AcDbEntity
100
AcDbVertex
100
AcDb3dPolylineVertex
8
0
10
43.2
20
49
30
95.09288787841797
70
32
0
VERTEX
5
BA
330
AD
100
AcDbEntity
100
AcDbVertex
100
AcDb3dPolylineVertex
8
0
10
43.3
20
49.1
30
95.16481276842447
70
32
0
VERTEX
5
BB
330
AD
100
AcDbEntity
100
AcDbVertex
100
AcDb3dPolylineVertex
8
0
10
43.5
20
49.1
30
95.31429216036678
70
32
0
VERTEX
5
BC
330
AD
100
AcDbEntity
100
AcDbVertex
100
AcDb3dPolylineVertex
8
0
10
43.6
20
49
30
95.39184666230258
70
32
0
VERTEX
5
BD
330
AD
100
AcDbEntity
100
AcDbVertex
100
AcDb3dPolylineVertex
8
0
10
43.6
20
48.9
30
95.39466146826726
70
32
0
VERTEX
5
BE
330
AD
100
AcDbEntity
100
AcDbVertex
100
AcDb3dPolylineVertex
8
0
10
43.5
20
48.8
30
95.32273657826076
70
32
0
VERTEX
5
BF
330
AD
100
AcDbEntity
100
AcDbVertex
100
AcDb3dPolylineVertex
8
0
10
43.3
20
48.8
30
95.17325718631845
70
32
0
VERTEX
5
C0
330
AD
100
AcDbEntity
100
AcDbVertex
100
AcDb3dPolylineVertex
8
0
10
43.3
20
48.8
30
94.22610660761038
70
32
0
VERTEX
5
C1
330
AD
100
AcDbEntity
100
AcDbVertex
100
AcDb3dPolylineVertex
8
0
10
43.3
20
48.8
30
95.17325718631845
70
32
0
VERTEX
5
C2
330
AD
100
AcDbEntity
100
AcDbVertex
100
AcDb3dPolylineVertex
8
0
10
43.2
20
48.9
30
94.14855210567455
70
32
0
VERTEX
5
C3
330
AD
100
AcDbEntity
100
AcDbVertex
100
AcDb3dPolylineVertex
8
0
10
43.2
20
48.9
30
95.09570268438263
70
32
0
VERTEX
5
C4
330
AD
100
AcDbEntity
100
AcDbVertex
100
AcDb3dPolylineVertex
8
0
10
43.2
20
49
30
94.1457372997099
70
32
0
VERTEX
5
C5
330
AD
100
AcDbEntity
100
AcDbVertex
100
AcDb3dPolylineVertex
8
0
10
43.2
20
49
30
95.09288787841797
70
32
0
VERTEX
5
C6
330
AD
100
AcDbEntity
100
AcDbVertex
100
AcDb3dPolylineVertex
8
0
10
43.3
20
49.1
30
94.21766218971639
70
32
0
VERTEX
5
C7
330
AD
100
AcDbEntity
100
AcDbVertex
100
AcDb3dPolylineVertex
8
0
10
43.3
20
49.1
30
95.16481276842447
70
32
0
VERTEX
5
C8
330
AD
100
AcDbEntity
100
AcDbVertex
100
AcDb3dPolylineVertex
8
0
10
43.5
20
49.1
30
94.3671415816587
70
32
0
VERTEX
5
C9
330
AD
100
AcDbEntity
100
AcDbVertex
100
AcDb3dPolylineVertex
8
0
10
43.5
20
49.1
30
95.31429216036678
70
32
0
VERTEX
5
CA
330
AD
100
AcDbEntity
100
AcDbVertex
100
AcDb3dPolylineVertex
8
0
10
43.6
20
49
30
94.44469608359451
70
32
0
VERTEX
5
CB
330
AD
100
AcDbEntity
100
AcDbVertex
100
AcDb3dPolylineVertex
8
0
10
43.6
20
49
30
95.39184666230258
70
32
0
VERTEX
5
CC
330
AD
100
AcDbEntity
100
AcDbVertex
100
AcDb3dPolylineVertex
8
0
10
43.6
20
48.9
30
94.44751088955918
70
32
0
VERTEX
5
CD
330
AD
100
AcDbEntity
100
AcDbVertex
100
AcDb3dPolylineVertex
8
0
10
43.6
20
48.9
30
95.39466146826726
70
32
0
VERTEX
5
CE
330
AD
100
AcDbEntity
100
AcDbVertex
100
AcDb3dPolylineVertex
8
0
10
43.5
20
48.8
30
94.37558599955268
70
32
0
VERTEX
5
CF
330
AD
100
AcDbEntity
100
AcDbVertex
100
AcDb3dPolylineVertex
8
0
10
43.5
20
48.8
30
95.32273657826076
70
32
0
SEQEND
5
D0
100
AcDbEntity
8
0
0
POLYLINE
5
D1
330
11
100
AcDbEntity
100
AcDb3dPolyline
8
0
66
1
70
0
10
0
20
0
30
0
0
VERTEX
5
D2
330
D1
100
AcDbEntity
100
AcDbVertex
100
AcDb3dPolylineVertex
8
0
10
44.2
20
50.2
30
94.85935658784548
70
32
0
VERTEX
5
D3
330
D1
100
AcDbEntity
100
AcDbVertex
100
AcDb3dPolylineVertex
8
0
10
44.1
20
50.3
30
94.78180208590966
70
32
0
VERTEX
5
D4
330
D1
100
AcDbEntity
100
AcDbVertex
100
AcDb3dPolylineVertex
8
0
10
44.2
20
50.4
30
94.85372697591615
70
32
0
VERTEX
5
D5
330
D1
100
AcDbEntity
100
AcDbVertex
100
AcDb3dPolylineVertex
8
0
10
44.3
20
50.3
30
94.93128147785197
70
32
0
VERTEX
5
D6
330
D1
100
AcDbEntity
100
AcDbVertex
100
AcDb3dPolylineVertex
8
0
10
44.2
20
50.2
30
94.85935658784548
70
32
0
VERTEX
5
D7
330
D1
100
AcDbEntity
100
AcDbVertex
100
AcDb3dPolylineVertex
8
0
10
44.2
20
50.2
30
95.4300630468577
70
32
0
VERTEX
5
D8
330
D1
100
AcDbEntity
100
AcDbVertex
100
AcDb3dPolylineVertex
8
0
10
44.1
20
50.3
30
95.35250854492188
70
32
0
VERTEX
5
D9
330
D1
100
AcDbEntity
100
AcDbVertex
100
AcDb3dPolylineVertex
8
0
10
44.2
20
50.4
30
95.42443343492836
70
32
0
VERTEX
5
DA
330
D1
100
AcDbEntity
100
AcDbVertex
100
AcDb3dPolylineVertex
8
0
10
44.3
20
50.3
30
95.50198793686418
70
32
0
VERTEX
5
DB
330
D1
100
AcDbEntity
100
AcDbVertex
100
AcDb3dPolylineVertex
8
0
10
44.2
20
50.2
30
95.4300630468577
70
32
0
VERTEX
5
DC
330
D1
100
AcDbEntity
100
AcDbVertex
100
AcDb3dPolylineVertex
8
0
10
44.2
20
50.2
30
94.85935658784548
70
32
0
VERTEX
5
DD
330
D1
100
AcDbEntity
100
AcDbVertex
100
AcDb3dPolylineVertex
8
0
10
44.2
20
50.2
30
95.4300630468577
70
32
0
VERTEX
5
DE
330
D1
100
AcDbEntity
100
AcDbVertex
100
AcDb3dPolylineVertex
8
0
10
44.1
20
50.3
30
94.78180208590966
70
32
0
VERTEX
5
DF
330
D1
100
AcDbEntity
100
AcDbVertex
100
AcDb3dPolylineVertex
8
0
10
44.1
20
50.3
30
95.35250854492188
70
32
0
VERTEX
5
E0
330
D1
100
AcDbEntity
100
AcDbVertex
100
AcDb3dPolylineVertex
8
0
10
44.2
20
50.4
30
94.85372697591615
70
32
0
VERTEX
5
E1
330
D1
100
AcDbEntity
100
AcDbVertex
100
AcDb3dPolylineVertex
8
0
10
44.2
20
50.4
30
95.42443343492836
70
32
0
VERTEX
5
E2
330
D1
100
AcDbEntity
100
AcDbVertex
100
AcDb3dPolylineVertex
8
0
10
44.3
20
50.3
30
94.93128147785197
70
32
0
VERTEX
5
E3
330
D1
100
AcDbEntity
100
AcDbVertex
100
AcDb3dPolylineVertex
8
0
10
44.3
20
50.3
30
95.50198793686418
70
32
0
SEQEND
5
E4
100
AcDbEntity
8
0
0
POLYLINE
5
E5
330
11
100
AcDbEntity
100
AcDb3dPolyline
8
0
66
1
70
0
10
0
20
0
30
0
0
VERTEX
5
E6
330
E5
100
AcDbEntity
100
AcDbVertex
100
AcDb3dPolylineVertex
8
0
10
45.9
20
51
30
96.10741297163783
70
32
0
VERTEX
5
E7
330
E5
100
AcDbEntity
100
AcDbVertex
100
AcDb3dPolylineVertex
8
0
10
45.8
20
51.1
30
96.02985846970199
70
32
0
VERTEX
5
E8
330
E5
100
AcDbEntity
100
AcDbVertex
100
AcDb3dPolylineVertex
8
0
10
46
20
51.3
30
96.17370824971499
70
32
0
VERTEX
5
E9
330
E5
100
AcDbEntity
100
AcDbVertex
100
AcDb3dPolylineVertex
8
0
10
46.1
20
51.2
30
96.25126275165083
70
32
0
VERTEX
5
EA
330
E5
100
AcDbEntity
100
AcDbVertex
100
AcDb3dPolylineVertex
8
0
10
45.9
20
51
30
96.10741297163783
70
32
0
VERTEX
5
EB
330
E5
100
AcDbEntity
100
AcDbVertex
100
AcDb3dPolylineVertex
8
0
10
45.9
20
51
30
96.15741297163783
70
32
0
VERTEX
5
EC
330
E5
100
AcDbEntity
100
AcDbVertex
100
AcDb3dPolylineVertex
8
0
10
45.8
20
51.1
30
96.07985846970199
70
32
0
VERTEX
5
ED
330
E5
100
AcDbEntity
100
AcDbVertex
100
AcDb3dPolylineVertex
8
0
10
46
20
51.3
30
96.22370824971499
70
32
0
VERTEX
5
EE
330
E5
100
AcDbEntity
100
AcDbVertex
100
AcDb3dPolylineVertex
8
0
10
46.1
20
51.2
30
96.30126275165082
70
32
0
VERTEX
5
EF
330
E5
100
AcDbEntity
100
AcDbVertex
100
AcDb3dPolylineVertex
8
0
10
45.9
20
51
30
96.15741297163783
70
32
0
VERTEX
5
F0
330
E5
100
AcDbEntity
100
AcDbVertex
100
AcDb3dPolylineVertex
8
0
10
45.9
20
51
30
96.10741297163783
70
32
0
VERTEX
5
F1
330
E5
100
AcDbEntity
100
AcDbVertex
100
AcDb3dPolylineVertex
8
0
10
45.9
20
51
30
96.15741297163783
70
32
0
VERTEX
5
F2
330
E5
100
AcDbEntity
100
AcDbVertex
100
AcDb3dPolylineVertex
8
0
10
45.8
20
51.1
30
96.02985846970199
70
32
0
VERTEX
5
F3
330
E5
100
AcDbEntity
100
AcDbVertex
100
AcDb3dPolylineVertex
8
0
10
45.8
20
51.1
30
96.07985846970199
70
32
0
VERTEX
5
F4
330
E5
100
AcDbEntity
100
AcDbVertex
100
AcDb3dPolylineVertex
8
0
10
46
20
51.3
30
96.17370824971499
70
32
0
VERTEX
5
F5
330
E5
100
AcDbEntity
100
AcDbVertex
100
AcDb3dPolylineVertex
8
0
10
46
20
51.3
30
96.22370824971499
70
32
0
VERTEX
5
F6
330
E5
100
AcDbEntity
100
AcDbVertex
100
AcDb3dPolylineVertex
8
0
10
46.1
20
51.2
30
96.25126275165083
70
32
0
VERTEX
5
F7
330
E5
100
AcDbEntity
100
AcDbVertex
100
AcDb3dPolylineVertex
8
0
10
46.1
20
51.2
30
96.30126275165082
70
32
0
SEQEND
5
F8
100
AcDbEntity
8
0
0
POLYLINE
5
F9
330
11
100
AcDbEntity
100
AcDb3dPolyline
8
0
66
1
70
0
10
0
20
0
30
0
0
VERTEX
5
FA
330
F9
100
AcDbEntity
100
AcDbVertex
100
AcDb3dPolylineVertex
8
0
10
47.3
20
53.1
30
95.7392786525356
70
32
0
VERTEX
5
FB
330
F9
100
AcDbEntity
100
AcDbVertex
100
AcDb3dPolylineVertex
8
0
10
47.2
20
53.2
30
95.70090640780266
70
32
0
VERTEX
5
FC
330
F9
100
AcDbEntity
100
AcDbVertex
100
AcDb3dPolylineVertex
8
0
10
47.3
20
53.3
30
95.67454400862106
70
32
0
VERTEX
5
FD
330
F9
100
AcDbEntity
100
AcDbVertex
100
AcDb3dPolylineVertex
8
0
10
47.4
20
53.3
30
95.68054893139671
70
32
0
VERTEX
5
FE
330
F9
100
AcDbEntity
100
AcDbVertex
100
AcDb3dPolylineVertex
8
0
10
47.5
20
53.2
30
95.71892117612964
70
32
0
VERTEX
5
FF
330
F9
100
AcDbEntity
100
AcDbVertex
100
AcDb3dPolylineVertex
8
0
10
47.4
20
53.1
30
95.74528357531126
70
32
0
VERTEX
5
100
330
F9
100
AcDbEntity
100
AcDbVertex
100
AcDb3dPolylineVertex
8
0
10
47.3
20
53.1
30
95.7392786525356
70
32
0
VERTEX
5
101
330
F9
100
AcDbEntity
100
AcDbVertex
100
AcDb3dPolylineVertex
8
0
10
47.3
20
53.1
30
96.00869390000638
70
32
0
VERTEX
5
102
330
F9
100
AcDbEntity
100
AcDbVertex
100
AcDb3dPolylineVertex
8
0
10
47.2
20
53.2
30
95.97032165527344
70
32
0
VERTEX
5
103
330
F9
100
AcDbEntity
100
AcDbVertex
100
AcDb3dPolylineVertex
8
0
10
47.3
20
53.3
30
95.94395925609183
70
32
0
VERTEX
5
104
330
F9
100
AcDbEntity
100
AcDbVertex
100
AcDb3dPolylineVertex
8
0
10
47.4
20
53.3
30
95.94996417886749
70
32
0
VERTEX
5
105
330
F9
100
AcDbEntity
100
AcDbVertex
100
AcDb3dPolylineVertex
8
0
10
47.5
20
53.2
30
95.98833642360042
70
32
0
VERTEX
5
106
330
F9
100
AcDbEntity
100
AcDbVertex
100
AcDb3dPolylineVertex
8
0
10
47.4
20
53.1
30
96.01469882278204
70
32
0
VERTEX
5
107
330
F9
100
AcDbEntity
100
AcDbVertex
100
AcDb3dPolylineVertex
8
0
10
47.3
20
53.1
30
96.00869390000638
70
32
0
VERTEX
5
108
330
F9
100
AcDbEntity
100
AcDbVertex
100
AcDb3dPolylineVertex
8
0
10
47.3
20
53.1
30
95.7392786525356
70
32
0
VERTEX
5
109
330
F9
100
AcDbEntity
100
AcDbVertex
100
AcDb3dPolylineVertex
8
0
10
47.3
20
53.1
30
96.00869390000638
70
32
0
VERTEX
5
10A
330
F9
100
AcDbEntity
100
AcDbVertex
100
AcDb3dPolylineVertex
8
0
10
47.2
20
53.2
30
95.70090640780266
70
32
0
VERTEX
5
10B
330
F9
100
AcDbEntity
100
AcDbVertex
100
AcDb3dPolylineVertex
8
0
10
47.2
20
53.2
30
95.97032165527344
70
32
0
VERTEX
5
10C
330
F9
100
AcDbEntity
100
AcDbVertex
100
AcDb3dPolylineVertex
8
0
10
47.3
20
53.3
30
95.67454400862106
70
32
0
VERTEX
5
10D
330
F9
100
AcDbEntity
100
AcDbVertex
100
AcDb3dPolylineVertex
8
0
10
47.3
20
53.3
30
95.94395925609183
70
32
0
VERTEX
5
10E
330
F9
100
AcDbEntity
100
AcDbVertex
100
AcDb3dPolylineVertex
8
0
10
47.4
20
53.3
30
95.68054893139671
70
32
0
VERTEX
5
10F
330
F9
100
AcDbEntity
100
AcDbVertex
100
AcDb3dPolylineVertex
8
0
10
47.4
20
53.3
30
95.94996417886749
70
32
0
VERTEX
5
110
330
F9
100
AcDbEntity
100
AcDbVertex
100
AcDb3dPolylineVertex
8
0
10
47.5
20
53.2
30
95.71892117612964
70
32
0
VERTEX
5
111
330
F9
100
AcDbEntity
100
AcDbVertex
100
AcDb3dPolylineVertex
8
0
10
47.5
20
53.2
30
95.98833642360042
70
32
0
VERTEX
5
112
330
F9
100
AcDbEntity
100
AcDbVertex
100
AcDb3dPolylineVertex
8
0
10
47.4
20
53.1
30
95.74528357531126
70
32
0
VERTEX
5
113
330
F9
100
AcDbEntity
100
AcDbVertex
100
AcDb3dPolylineVertex
8
0
10
47.4
20
53.1
30
96.01469882278204
70
32
0
SEQEND
5
114
100
AcDbEntity
8
0
0
POLYLINE
5
115
330
11
100
AcDbEntity
100
AcDb3dPolyline
8
roofs
66
1
70
0
10
0
20
0
30
0
0
VERTEX
5
116
330
115
100
AcDbEntity
100
AcDbVertex
100
AcDb3dPolylineVertex
8
roofs
10
46.5
20
47.4
30
96.02427673339844
70
32
0
VERTEX
5
117
330
115
100
AcDbEntity
100
AcDbVertex
100
AcDb3dPolylineVertex
8
roofs
10
46.5
20
52.4
30
95.98275756835938
70
32
0
VERTEX
5
118
330
115
100
AcDbEntity
100
AcDbVertex
100
AcDb3dPolylineVertex
8
roofs
10
50.1
20
49.4
30
95.07173156738281
70
32
0
VERTEX
5
119
330
115
100
AcDbEntity
100
AcDbVertex
100
AcDb3dPolylineVertex
8
roofs
10
49.9
20
44.1
30
92.2598648071289
70
32
0
VERTEX
5
11A
330
115
100
AcDbEntity
100
AcDbVertex
100
AcDb3dPolylineVertex
8
roofs
10
46.5
20
47.4
30
96.02427673339844
70
32
0
SEQEND
5
11B
100
AcDbEntity
8
roofs
0
POLYLINE
5
11C
330
11
100
AcDbEntity
100
AcDb3dPolyline
8
roofs
66
1
70
0
10
0
20
0
30
0
0
VERTEX
5
11D
330
11C
100
AcDbEntity
100
AcDbVertex
100
AcDb3dPolylineVertex
8
roofs
10
46.5
20
52.4
30
95.98275756835938
70
32
0
VERTEX
5
11E
330
11C
100
AcDbEntity
100
AcDbVertex
100
AcDb3dPolylineVertex
8
roofs
10
48.5
20
52.6
30
95.85173797607422
70
32
0
VERTEX
5
11F
330
11C
100
AcDbEntity
100
AcDbVertex
100
AcDb3dPolylineVertex
8
roofs
10
51.7
20
49.2
30
92.09246826171875
70
32
0
VERTEX
5
120
330
11C
100
AcDbEntity
100
AcDbVertex
100
AcDb3dPolylineVertex
8
roofs
10
50.1
20
49.4
30
95.07173156738281
70
32
0
VERTEX
5
121
330
11C
100
AcDbEntity
100
AcDbVertex
100
AcDb3dPolylineVertex
8
roofs
10
46.5
20
52.4
30
95.98275756835938
70
32
0
SEQEND
5
122
100
AcDbEntity
8
roofs
0
POLYLINE
5
123
330
11
100
AcDbEntity
100
AcDb3dPolyline
8
roofs
66
1
70
0
10
0
20
0
30
0
0
VERTEX
5
124
330
123
100
AcDbEntity
100
AcDbVertex
100
AcDb3dPolylineVertex
8
roofs
10
48.5
20
52.6
30
95.85173797607422
70
32
0
VERTEX
5
125
330
123
100
AcDbEntity
100
AcDbVertex
100
AcDb3dPolylineVertex
8
roofs
10
49.8
20
53.9
30
95.54326629638672
70
32
0
VERTEX
5
126
330
123
100
AcDbEntity
100
AcDbVertex
100
AcDb3dPolylineVertex
8
roofs
10
51.7
20
52
30
94.83453369140625
70
32
0
VERTEX
5
127
330
123
100
AcDbEntity
100
AcDbVertex
100
AcDb3dPolylineVertex
8
roofs
10
51.7
20
49.2
30
92.09246826171875
70
32
0
VERTEX
5
128
330
123
100
AcDbEntity
100
AcDbVertex
100
AcDb3dPolylineVertex
8
roofs
10
48.5
20
52.6
30
95.85173797607422
70
32
0
SEQEND
5
129
100
AcDbEntity
8
roofs
0
POLYLINE
5
12A
330
11
100
AcDbEntity
100
AcDb3dPolyline
8
roofs
66
1
70
0
10
0
20
0
30
0
0
VERTEX
5
12B
330
12A
100
AcDbEntity
100
AcDbVertex
100
AcDb3dPolylineVertex
8
roofs
10
49.8
20
53.9
30
95.54326629638672
70
32
0
VERTEX
5
12C
330
12A
100
AcDbEntity
100
AcDbVertex
100
AcDb3dPolylineVertex
8
roofs
10
50.2
20
54.2
30
95.46427917480469
70
32
0
VERTEX
5
12D
330
12A
100
AcDbEntity
100
AcDbVertex
100
AcDb3dPolylineVertex
8
roofs
10
52.5
20
52.1
30
94.52017974853516
70
32
0
VERTEX
5
12E
330
12A
100
AcDbEntity
100
AcDbVertex
100
AcDb3dPolylineVertex
8
roofs
10
51.7
20
52
30
94.83453369140625
70
32
0
VERTEX
5
12F
330
12A
100
AcDbEntity
100
AcDbVertex
100
AcDb3dPolylineVertex
8
roofs
10
49.8
20
53.9
30
95.54326629638672
70
32
0
SEQEND
5
130
100
AcDbEntity
8
roofs
0
POLYLINE
5
131
330
11
100
AcDbEntity
100
AcDb3dPolyline
8
roofs
66
1
70
0
10
0
20
0
30
0
0
VERTEX
5
132
330
131
100
AcDbEntity
100
AcDbVertex
100
AcDb3dPolylineVertex
8
roofs
10
50.2
20
54.2
30
95.46427917480469
70
32
0
VERTEX
5
133
330
131
100
AcDbEntity
100
AcDbVertex
100
AcDb3dPolylineVertex
8
roofs
10
52.4
20
55.9
30
94.65084838867188
70
32
0
VERTEX
5
134
330
131
100
AcDbEntity
100
AcDbVertex
100
AcDb3dPolylineVertex
8
roofs
10
52.5
20
52.1
30
94.52017974853516
70
32
0
VERTEX
5
135
330
131
100
AcDbEntity
100
AcDbVertex
100
AcDb3dPolylineVertex
8
roofs
10
50.2
20
54.2
30
95.46427917480469
70
32
0
SEQEND
5
136
100
AcDbEntity
8
roofs
0
POLYLINE
5
137
330
11
100
AcDbEntity
100
AcDb3dPolyline
8
roofs
66
1
70
0
10
0
20
0
30
0
0
VERTEX
5
138
330
137
100
AcDbEntity
100
AcDbVertex
100
AcDb3dPolylineVertex
8
roofs
10
42.8
20
44
30
96.4709701538086
70
32
0
VERTEX
5
139
330
137
100
AcDbEntity
100
AcDbVertex
100
AcDb3dPolylineVertex
8
roofs
10
42.8
20
55.8
30
95.16842651367188
70
32
0
VERTEX
5
13A
330
137
100
AcDbEntity
100
AcDbVertex
100
AcDb3dPolylineVertex
8
roofs
10
46.5
20
52.4
30
95.98275756835938
70
32
0
VERTEX
5
13B
330
137
100
AcDbEntity
100
AcDbVertex
100
AcDb3dPolylineVertex
8
roofs
10
46.5
20
47.4
30
96.02427673339844
70
32
0
VERTEX
5
13C
330
137
100
AcDbEntity
100
AcDbVertex
100
AcDb3dPolylineVertex
8
roofs
10
42.8
20
44
30
96.4709701538086
70
32
0
SEQEND
5
13D
100
AcDbEntity
8
roofs
0
POLYLINE
5
13E
330
11
100
AcDbEntity
100
AcDb3dPolyline
8
roofs
66
1
70
0
10
0
20
0
30
0
0
VERTEX
5
13F
330
13E
100
AcDbEntity
100
AcDbVertex
100
AcDb3dPolylineVertex
8
roofs
10
46.5
20
47.4
30
96.02427673339844
70
32
0
VERTEX
5
140
330
13E
100
AcDbEntity
100
AcDbVertex
100
AcDb3dPolylineVertex
8
roofs
10
49.9
20
44.1
30
92.2598648071289
70
32
0
VERTEX
5
141
330
13E
100
AcDbEntity
100
AcDbVertex
100
AcDb3dPolylineVertex
8
roofs
10
42.8
20
44
30
96.4709701538086
70
32
0
VERTEX
5
142
330
13E
100
AcDbEntity
100
AcDbVertex
100
AcDb3dPolylineVertex
8
roofs
10
46.5
20
47.4
30
96.02427673339844
70
32
0
SEQEND
5
143
100
AcDbEntity
8
roofs
0
POLYLINE
5
144
330
11
100
AcDbEntity
100
AcDb3dPolyline
8
roofs
66
1
70
0
10
0
20
0
30
0
0
VERTEX
5
145
330
144
100
AcDbEntity
100
AcDbVertex
100
AcDb3dPolylineVertex
8
roofs
10
42.8
20
55.8
30
95.16842651367188
70
32
0
VERTEX
5
146
330
144
100
AcDbEntity
100
AcDbVertex
100
AcDb3dPolylineVertex
8
roofs
10
52.4
20
55.9
30
94.65084838867188
70
32
0
VERTEX
5
147
330
144
100
AcDbEntity
100
AcDbVertex
100
AcDb3dPolylineVertex
8
roofs
10
50.2
20
54.2
30
95.46427917480469
70
32
0
VERTEX
5
148
330
144
100
AcDbEntity
100
AcDbVertex
100
AcDb3dPolylineVertex
8
roofs
10
49.8
20
53.9
30
95.54326629638672
70
32
0
VERTEX
5
149
330
144
100
AcDbEntity
100
AcDbVertex
100
AcDb3dPolylineVertex
8
roofs
10
48.5
20
52.6
30
95.85173797607422
70
32
0
VERTEX
5
14A
330
144
100
AcDbEntity
100
AcDbVertex
100
AcDb3dPolylineVertex
8
roofs
10
46.5
20
52.4
30
95.98275756835938
70
32
0
VERTEX
5
14B
330
144
100
AcDbEntity
100
AcDbVertex
100
AcDb3dPolylineVertex
8
roofs
10
42.8
20
55.8
30
95.16842651367188
70
32
0
SEQEND
5
14C
100
AcDbEntity
8
roofs
0
POLYLINE
5
14D
330
11
100
AcDbEntity
100
AcDb3dPolyline
8
panels
66
1
70
0
10
0
20
0
30
0
0
VERTEX
5
14E
330
14D
100
AcDbEntity
100
AcDbVertex
100
AcDb3dPolylineVertex
8
panels
10
47.425330345462584
20
49.11348163765266
30
95.77959865523908
70
32
0
VERTEX
5
14F
330
14D
100
AcDbEntity
100
AcDbVertex
100
AcDb3dPolylineVertex
8
panels
10
47.73469835868772
20
50.09697156255943
30
95.77959865523908
70
32
0
VERTEX
5
150
330
14D
100
AcDbEntity
100
AcDbVertex
100
AcDb3dPolylineVertex
8
panels
10
49.466750625190684
20
49.55213469649706
30
95.32404214339746
70
32
0
VERTEX
5
151
330
14D
100
AcDbEntity
100
AcDbVertex
100
AcDb3dPolylineVertex
8
panels
10
49.157382611965545
20
48.568644771590286
30
95.32404214339746
70
32
0
SEQEND
5
152
100
AcDbEntity
8
panels
0
POLYLINE
5
153
330
11
100
AcDbEntity
100
AcDb3dPolyline
8
panels
66
1
70
0
10
0
20
0
30
0
0
VERTEX
5
154
330
153
100
AcDbEntity
100
AcDbVertex
100
AcDb3dPolylineVertex
8
panels
10
47.32912448546658
20
53.81124078853342
30
95.51081795948062
70
32
0
VERTEX
5
155
330
153
100
AcDbEntity
100
AcDbVertex
100
AcDb3dPolylineVertex
8
panels
10
46.31542233052053
20
53.62317446763105
30
95.51081795948062
70
32
0
VERTEX
5
156
330
153
100
AcDbEntity
100
AcDbVertex
100
AcDb3dPolylineVertex
8
panels
10
45.991070931797914
20
55.37147108058806
30
94.92546411498162
70
32
0
VERTEX
5
157
330
153
100
AcDbEntity
100
AcDbVertex
100
AcDb3dPolylineVertex
8
panels
10
47.00477308674395
20
55.559537401490424
30
94.92546411498162
70
32
0
SEQEND
5
158
100
AcDbEntity
8
panels
0
POLYLINE
5
159
330
11
100
AcDbEntity
100
AcDb3dPolyline
8
panels
66
1
70
0
10
0
20
0
30
0
0
VERTEX
5
15A
330
159
100
AcDbEntity
100
AcDbVertex
100
AcDb3dPolylineVertex
8
panels
10
48.3553135631748
20
54.0016237362791
30
95.51081795948062
70
32
0
VERTEX
5
15B
330
159
100
AcDbEntity
100
AcDbVertex
100
AcDb3dPolylineVertex
8
panels
10
47.34161140822876
20
53.813557415376735
30
95.51081795948062
70
32
0
VERTEX
5
15C
330
159
100
AcDbEntity
100
AcDbVertex
100
AcDb3dPolylineVertex
8
panels
10
47.01726000950614
20
55.561854028333734
30
94.92546411498162
70
32
0
VERTEX
5
15D
330
159
100
AcDbEntity
100
AcDbVertex
100
AcDb3dPolylineVertex
8
panels
10
48.030962164452184
20
55.74992034923609
30
94.92546411498162
70
32
0
SEQEND
5
15E
100
AcDbEntity
8
panels
0
POLYLINE
5
15F
330
11
100
AcDbEntity
100
AcDb3dPolyline
8
panels
66
1
70
0
10
0
20
0
30
0
0
VERTEX
5
160
330
15F
100
AcDbEntity
100
AcDbVertex
100
AcDb3dPolylineVertex
8
panels
10
47.11174504701569
20
48.080685367631126
30
95.75929739155987
70
32
0
VERTEX
5
161
330
15F
100
AcDbEntity
100
AcDbVertex
100
AcDb3dPolylineVertex
8
panels
10
47.421113060240835
20
49.0641752925379
30
95.75929739155987
70
32
0
VERTEX
5
162
330
15F
100
AcDbEntity
100
AcDbVertex
100
AcDb3dPolylineVertex
8
panels
10
49.15316532674379
20
48.51933842647552
30
95.30374087971825
70
32
0
VERTEX
5
163
330
15F
100
AcDbEntity
100
AcDbVertex
100
AcDb3dPolylineVertex
8
panels
10
48.84379731351865
20
47.53584850156876
30
95.30374087971825
70
32
0
SEQEND
5
164
100
AcDbEntity
8
panels
0
ENDSEC
0
SECTION
2
OBJECTS
0
DICTIONARY
5
1
330
0
100
AcDbDictionary
281
1
3
ACAD_GROUP
350
15
0
DICTIONARY
5
15
330
1
100
AcDbDictionary
281
1
0
ENDSEC
0
EOF

