999
Design created by Aurora
0
SECTION
2
HEADER
9
$ACADVER
1
AC1009
9
$INSUNITS
70
2
0
ENDSEC
0
SECTION
2
TABLES
0
TABLE
2
LTYPE
100
AcDbLinetypeTableRecord
2
LTYPE
0
LTYPE
2
DASHED
70
0
3
dashed line
72
65
73
2
40
4.0
49
2.0
49
-2.0
0
ENDTAB
0
TABLE
2
LAYER
70
4
0
LAYER
100
AcDbSymbolTable
100
AcDbLayerTable
2
Modules
70
0
62
7
6
CONTINUOUS
0
LAYER
100
AcDbSymbolTable
100
AcDbLayerTable
2
Buildings
70
0
62
7
6
CONTINUOUS
0
LAYER
100
AcDbSymbolTable
100
AcDbLayerTable
2
Setbacks
70
0
62
7
6
CONTINUOUS
0
LAYER
100
AcDbSymbolTable
100
AcDbLayerTable
2
Walkways
70
0
62
7
6
CONTINUOUS
0
ENDTAB
0
ENDSEC
0
SECTION
2
ENTITIES
0
LINE
8
Modules
10
-6.5440140247
20
2.3252906794
11
-0.8873006091
21
2.2458935380
62
254
0
LINE
8
Modules
10
-0.8873006091
20
2.2458935380
11
-0.8404727914
21
5.5821791986
62
254
0
LINE
8
Modules
10
-0.8404727914
20
5.5821791986
11
-6.4971862070
21
5.6615763400
62
254
0
LINE
8
Modules
10
-6.4971862070
20
5.6615763400
11
-6.5440140247
21
2.3252906794
62
254
0
LINE
8
Modules
10
-6.4971876130
20
5.6615766896
11
-0.8404741974
21
5.5821795481
62
254
0
LINE
8
Modules
10
-0.8404741974
20
5.5821795481
11
-0.7936463798
21
8.9184652087
62
254
0
LINE
8
Modules
10
-0.7936463798
20
8.9184652087
11
-6.4503597953
21
8.9978623501
62
254
0
LINE
8
Modules
10
-6.4503597953
20
8.9978623501
11
-6.4971876130
21
5.6615766896
62
254
0
LINE
8
Modules
10
-11.8404814116
20
-13.5313935441
11
-11.9198780715
21
-19.1881066236
62
254
0
LINE
8
Modules
10
-11.9198780715
20
-19.1881066236
11
-8.5835924070
21
-19.2349341602
62
254
0
LINE
8
Modules
10
-8.5835924070
20
-19.2349341602
11
-8.5041957470
21
-13.5782210806
62
254
0
LINE
8
Modules
10
-8.5041957470
20
-13.5782210806
11
-11.8404814116
21
-13.5313935441
62
254
0
LINE
8
Modules
10
-8.5041954014
20
-13.5782199557
11
-8.5835920614
21
-19.2349330353
62
254
0
LINE
8
Modules
10
-8.5835920614
20
-19.2349330353
11
-5.2473063968
21
-19.2817605718
62
254
0
LINE
8
Modules
10
-5.2473063968
20
-19.2817605718
11
-5.1679097369
21
-13.6250474923
62
254
0
LINE
8
Modules
10
-5.1679097369
20
-13.6250474923
11
-8.5041954014
21
-13.5782199557
62
254
0
LINE
8
Buildings
10
-21.4589359377
20
-19.8859238922
11
9.1823915441
21
-20.3159999123
62
252
0
LINE
8
Buildings
10
9.1823915441
20
-20.3159999123
11
3.0464261179
21
-14.0053358912
62
252
0
LINE
8
Buildings
10
3.0464261179
20
-14.0053358912
11
0.2533633144
21
-13.9661329770
62
252
0
LINE
8
Buildings
10
0.2533633144
20
-13.9661329770
11
-4.8672463673
21
-8.6997331458
62
252
0
LINE
8
Buildings
10
-4.8672463673
20
-8.6997331458
11
-9.8818720855
21
-8.6293487843
62
252
0
LINE
8
Buildings
10
-9.8818720855
20
-8.6293487843
11
-21.4589359377
21
-19.8859238922
62
252
0
LINE
8
Buildings
10
9.1823915441
20
-20.3159999123
11
9.3570901390
21
-7.8693704650
62
252
0
LINE
8
Buildings
10
9.3570901390
20
-7.8693704650
11
3.0464261179
21
-14.0053358912
62
252
0
LINE
8
Buildings
10
3.0464261179
20
-14.0053358912
11
9.1823915441
21
-20.3159999123
62
252
0
LINE
8
Buildings
10
9.3570901390
20
-7.8693704650
11
6.5640273355
21
-7.8301675507
62
252
0
LINE
8
Buildings
10
6.5640273355
20
-7.8301675507
11
0.2533633144
21
-13.9661329770
62
252
0
LINE
8
Buildings
10
0.2533633144
20
-13.9661329770
11
3.0464261179
21
-14.0053358912
62
252
0
LINE
8
Buildings
10
3.0464261179
20
-14.0053358912
11
9.3570901390
21
-7.8693704650
62
252
0
LINE
8
Buildings
10
6.5640273355
20
-7.8301675507
11
6.7098174849
21
2.5568419621
62
252
0
LINE
8
Buildings
10
6.7098174849
20
2.5568419621
11
-4.8672463673
21
-8.6997331458
62
252
0
LINE
8
Buildings
10
-4.8672463673
20
-8.6997331458
11
0.2533633144
21
-13.9661329770
62
252
0
LINE
8
Buildings
10
0.2533633144
20
-13.9661329770
11
6.5640273355
21
-7.8301675507
62
252
0
LINE
8
Buildings
10
6.7098174849
20
2.5568419621
11
1.6761674454
21
2.6274933455
62
252
0
LINE
8
Buildings
10
1.6761674454
20
2.6274933455
11
-9.8912507352
21
-8.6197031127
62
252
0
LINE
8
Buildings
10
-9.8912507352
20
-8.6197031127
11
-9.8818720855
21
-8.6293487843
62
252
0
LINE
8
Buildings
10
-9.8818720855
20
-8.6293487843
11
-4.8672463673
21
-8.6997331458
62
252
0
LINE
8
Buildings
10
-4.8672463673
20
-8.6997331458
11
6.7098174849
21
2.5568419621
62
252
0
LINE
8
Buildings
10
1.6761674454
20
2.6274933455
11
1.9047671421
21
18.9143771573
62
252
0
LINE
8
Buildings
10
1.9047671421
20
18.9143771573
11
-9.6626510385
21
7.6671806991
62
252
0
LINE
8
Buildings
10
-9.6626510385
20
7.6671806991
11
-9.8912507352
21
-8.6197031127
62
252
0
LINE
8
Buildings
10
-9.8912507352
20
-8.6197031127
11
1.6761674454
21
2.6274933455
62
252
0
LINE
8
Buildings
10
1.9047671421
20
18.9143771573
11
-20.9098474967
21
19.2345988798
62
252
0
LINE
8
Buildings
10
-20.9098474967
20
19.2345988798
11
-9.6626510385
21
7.6671806991
62
252
0
LINE
8
Buildings
10
-9.6626510385
20
7.6671806991
11
1.9047671421
21
18.9143771573
62
252
0
LINE
8
Buildings
10
-21.4589359377
20
-19.8859238922
11
-9.8818720855
21
-8.6293487843
62
252
0
LINE
8
Buildings
10
-9.8818720855
20
-8.6293487843
11
-9.8912507352
21
-8.6197031127
62
252
0
LINE
8
Buildings
10
-9.8912507352
20
-8.6197031127
11
-9.6626510385
21
7.6671806991
62
252
0
LINE
8
Buildings
10
-9.6626510385
20
7.6671806991
11
-20.9098474967
21
19.2345988798
62
252
0
LINE
8
Buildings
10
-20.9098474967
20
19.2345988798
11
-21.4589359377
21
-19.8859238922
62
252
0
ENDSEC
0
EOF